<svg xmlns="http://www.w3.org/2000/svg" xmlns:xlink="http://www.w3.org/1999/xlink" width="500" zoomAndPan="magnify" viewBox="0 0 375 374.999991" height="500" preserveAspectRatio="xMidYMid meet" version="1.0"><defs><g/><clipPath id="8d58d2d2c8"><path d="M 124.730469 126.042969 L 250.460938 126.042969 L 250.460938 247.960938 L 124.730469 247.960938 Z M 124.730469 126.042969 " clip-rule="nonzero"/></clipPath><clipPath id="0171aec3a2"><path d="M 141.980469 126.042969 L 233.019531 126.042969 C 237.597656 126.042969 241.984375 127.859375 245.21875 131.09375 C 248.453125 134.328125 250.269531 138.714844 250.269531 143.292969 L 250.269531 230.710938 C 250.269531 235.285156 248.453125 239.675781 245.21875 242.910156 C 241.984375 246.144531 237.597656 247.960938 233.019531 247.960938 L 141.980469 247.960938 C 137.402344 247.960938 133.015625 246.144531 129.78125 242.910156 C 126.546875 239.675781 124.730469 235.285156 124.730469 230.710938 L 124.730469 143.292969 C 124.730469 138.714844 126.546875 134.328125 129.78125 131.09375 C 133.015625 127.859375 137.402344 126.042969 141.980469 126.042969 Z M 141.980469 126.042969 " clip-rule="nonzero"/></clipPath><clipPath id="d29ef0289b"><path d="M 131.25 131.25 L 244 131.25 L 244 242.753906 L 131.25 242.753906 Z M 131.25 131.25 " clip-rule="nonzero"/></clipPath><clipPath id="63e5613f13"><path d="M 148.5 131.25 L 226.5 131.25 C 231.074219 131.25 235.460938 133.066406 238.699219 136.300781 C 241.933594 139.539062 243.75 143.925781 243.75 148.5 L 243.75 225.503906 C 243.75 230.078125 241.933594 234.464844 238.699219 237.699219 C 235.460938 240.9375 231.074219 242.753906 226.5 242.753906 L 148.5 242.753906 C 143.925781 242.753906 139.539062 240.9375 136.300781 237.699219 C 133.066406 234.464844 131.25 230.078125 131.25 225.503906 L 131.25 148.5 C 131.25 143.925781 133.066406 139.539062 136.300781 136.300781 C 139.539062 133.066406 143.925781 131.25 148.5 131.25 Z M 148.5 131.25 " clip-rule="nonzero"/></clipPath><clipPath id="aa392aafff"><path d="M 168.25 170.589844 L 187.527344 170.589844 L 187.527344 187.5 L 168.25 187.5 Z M 168.25 170.589844 " clip-rule="nonzero"/></clipPath><clipPath id="20dac7e76f"><path d="M 169.011719 173.34375 C 167.453125 175.917969 168.550781 178.417969 169.933594 179.75 L 178.011719 187.5 L 185.921875 179.777344 C 187.207031 178.347656 187.699219 176.832031 187.425781 175.144531 C 187.050781 172.808594 185.125 170.996094 182.75 170.738281 C 181.289062 170.582031 179.882812 170.996094 178.785156 171.90625 C 178.488281 172.152344 178.222656 172.429688 177.992188 172.726562 C 177.71875 172.386719 177.398438 172.074219 177.035156 171.800781 C 175.773438 170.839844 174.164062 170.457031 172.617188 170.753906 C 171.15625 171.039062 169.839844 171.980469 169.011719 173.34375 Z M 169.011719 173.34375 " clip-rule="nonzero"/></clipPath><clipPath id="09776aa5c2"><path d="M 131.25 131.25 L 243.835938 131.25 L 243.835938 155.550781 L 131.25 155.550781 Z M 131.25 131.25 " clip-rule="nonzero"/></clipPath><clipPath id="3c0de7031d"><path d="M 143.402344 131.25 L 231.597656 131.25 C 234.820312 131.25 237.914062 132.53125 240.191406 134.808594 C 242.46875 137.085938 243.75 140.179688 243.75 143.402344 C 243.75 146.625 242.46875 149.714844 240.191406 151.992188 C 237.914062 154.273438 234.820312 155.550781 231.597656 155.550781 L 143.402344 155.550781 C 140.179688 155.550781 137.085938 154.273438 134.808594 151.992188 C 132.53125 149.714844 131.25 146.625 131.25 143.402344 C 131.25 140.179688 132.53125 137.085938 134.808594 134.808594 C 137.085938 132.53125 140.179688 131.25 143.402344 131.25 Z M 143.402344 131.25 " clip-rule="nonzero"/></clipPath><clipPath id="0bc251c352"><path d="M 210.699219 116.300781 L 229.96875 116.300781 L 229.96875 155.59375 L 210.699219 155.59375 Z M 210.699219 116.300781 " clip-rule="nonzero"/></clipPath><clipPath id="240c78d50a"><path d="M 220.332031 116.300781 C 222.890625 116.300781 225.339844 117.316406 227.148438 119.121094 C 228.953125 120.929688 229.96875 123.378906 229.96875 125.9375 L 229.96875 145.917969 C 229.96875 148.472656 228.953125 150.921875 227.148438 152.730469 C 225.339844 154.535156 222.890625 155.550781 220.332031 155.550781 C 217.777344 155.550781 215.328125 154.535156 213.519531 152.730469 C 211.714844 150.921875 210.699219 148.472656 210.699219 145.917969 L 210.699219 125.9375 C 210.699219 123.378906 211.714844 120.929688 213.519531 119.121094 C 215.328125 117.316406 217.777344 116.300781 220.332031 116.300781 Z M 220.332031 116.300781 " clip-rule="nonzero"/></clipPath><clipPath id="4ef3c379e0"><path d="M 215.644531 122.382812 L 225.019531 122.382812 L 225.019531 149.484375 L 215.644531 149.484375 Z M 215.644531 122.382812 " clip-rule="nonzero"/></clipPath><clipPath id="6d0b6f28e9"><path d="M 220.332031 122.382812 C 222.921875 122.382812 225.019531 124.484375 225.019531 127.070312 L 225.019531 144.78125 C 225.019531 147.371094 222.921875 149.46875 220.332031 149.46875 C 217.746094 149.46875 215.644531 147.371094 215.644531 144.78125 L 215.644531 127.070312 C 215.644531 124.484375 217.746094 122.382812 220.332031 122.382812 Z M 220.332031 122.382812 " clip-rule="nonzero"/></clipPath><clipPath id="3f0741e249"><path d="M 144.292969 116.300781 L 163.5625 116.300781 L 163.5625 155.59375 L 144.292969 155.59375 Z M 144.292969 116.300781 " clip-rule="nonzero"/></clipPath><clipPath id="d1104c4bb4"><path d="M 153.925781 116.300781 C 156.484375 116.300781 158.933594 117.316406 160.742188 119.121094 C 162.546875 120.929688 163.5625 123.378906 163.5625 125.9375 L 163.5625 145.917969 C 163.5625 148.472656 162.546875 150.921875 160.742188 152.730469 C 158.933594 154.535156 156.484375 155.550781 153.925781 155.550781 C 151.371094 155.550781 148.921875 154.535156 147.113281 152.730469 C 145.308594 150.921875 144.292969 148.472656 144.292969 145.917969 L 144.292969 125.9375 C 144.292969 123.378906 145.308594 120.929688 147.113281 119.121094 C 148.921875 117.316406 151.371094 116.300781 153.925781 116.300781 Z M 153.925781 116.300781 " clip-rule="nonzero"/></clipPath><clipPath id="7cf17536bf"><path d="M 149.238281 122.382812 L 158.613281 122.382812 L 158.613281 149.484375 L 149.238281 149.484375 Z M 149.238281 122.382812 " clip-rule="nonzero"/></clipPath><clipPath id="7dd5fb28ae"><path d="M 153.925781 122.382812 C 156.515625 122.382812 158.613281 124.484375 158.613281 127.070312 L 158.613281 144.78125 C 158.613281 147.371094 156.515625 149.46875 153.925781 149.46875 C 151.339844 149.46875 149.238281 147.371094 149.238281 144.78125 L 149.238281 127.070312 C 149.238281 124.484375 151.339844 122.382812 153.925781 122.382812 Z M 153.925781 122.382812 " clip-rule="nonzero"/></clipPath><clipPath id="5fc4204666"><path d="M 175.019531 205.5 L 180.730469 205.5 L 180.730469 211.8125 L 175.019531 211.8125 Z M 175.019531 205.5 " clip-rule="nonzero"/></clipPath><clipPath id="52e0b0ade8"><path d="M 222.167969 167.5 L 227.875 167.5 L 227.875 173.8125 L 222.167969 173.8125 Z M 222.167969 167.5 " clip-rule="nonzero"/></clipPath></defs><g clip-path="url(#8d58d2d2c8)"><g clip-path="url(#0171aec3a2)"><path fill="#000000" d="M 124.730469 126.042969 L 250.460938 126.042969 L 250.460938 247.960938 L 124.730469 247.960938 Z M 124.730469 126.042969 " fill-opacity="1" fill-rule="nonzero"/></g></g><g clip-path="url(#d29ef0289b)"><g clip-path="url(#63e5613f13)"><path fill="#ffffff" d="M 131.25 131.25 L 243.625 131.25 L 243.625 242.753906 L 131.25 242.753906 Z M 131.25 131.25 " fill-opacity="1" fill-rule="nonzero"/></g></g><g fill="#000000" fill-opacity="1"><g transform="translate(151.136713, 212.999986)"><g><path d="M 9.09375 -43.703125 C 7.945312 -43.703125 7.015625 -44.0625 6.296875 -44.78125 C 5.578125 -45.5 5.21875 -46.410156 5.21875 -47.515625 C 5.21875 -48.617188 5.578125 -49.53125 6.296875 -50.25 C 7.015625 -50.96875 7.945312 -51.328125 9.09375 -51.328125 C 10.25 -51.328125 11.1875 -50.96875 11.90625 -50.25 C 12.625 -49.53125 12.984375 -48.617188 12.984375 -47.515625 C 12.984375 -46.410156 12.625 -45.5 11.90625 -44.78125 C 11.1875 -44.0625 10.25 -43.703125 9.09375 -43.703125 Z M 6.375 0 L 6.375 -36.625 L 11.78125 -36.625 L 11.78125 0 Z M 6.375 0 "/></g></g></g><g fill="#000000" fill-opacity="1"><g transform="translate(185.962788, 212.999986)"><g><path d="M 15.109375 0.703125 C 11.503906 0.703125 8.6875 -0.238281 6.65625 -2.125 C 4.632812 -4.007812 3.625 -6.695312 3.625 -10.1875 C 3.625 -12.363281 4.070312 -14.195312 4.96875 -15.6875 C 5.863281 -17.1875 7.25 -18.40625 9.125 -19.34375 C 11.007812 -20.28125 13.46875 -21.003906 16.5 -21.515625 C 19.15625 -21.960938 21.175781 -22.460938 22.5625 -23.015625 C 23.945312 -23.566406 24.875 -24.1875 25.34375 -24.875 C 25.820312 -25.5625 26.0625 -26.421875 26.0625 -27.453125 C 26.0625 -29.117188 25.488281 -30.394531 24.34375 -31.28125 C 23.207031 -32.164062 21.378906 -32.609375 18.859375 -32.609375 C 16.492188 -32.609375 14.460938 -32.144531 12.765625 -31.21875 C 11.078125 -30.300781 9.523438 -28.9375 8.109375 -27.125 L 7.4375 -27.125 L 4.78125 -30.875 C 6.332031 -32.84375 8.300781 -34.410156 10.6875 -35.578125 C 13.082031 -36.742188 15.804688 -37.328125 18.859375 -37.328125 C 23.171875 -37.328125 26.351562 -36.378906 28.40625 -34.484375 C 30.457031 -32.585938 31.484375 -29.96875 31.484375 -26.625 L 31.484375 -7.203125 C 31.484375 -5.171875 32.34375 -4.15625 34.0625 -4.15625 C 34.644531 -4.15625 35.203125 -4.253906 35.734375 -4.453125 L 36.1875 -4.3125 L 36.828125 -0.5625 C 36.421875 -0.300781 35.890625 -0.0976562 35.234375 0.046875 C 34.585938 0.191406 33.921875 0.265625 33.234375 0.265625 C 31.222656 0.265625 29.703125 -0.175781 28.671875 -1.0625 C 27.640625 -1.945312 26.984375 -3.253906 26.703125 -4.984375 L 26 -5.046875 C 24.957031 -3.117188 23.550781 -1.675781 21.78125 -0.71875 C 20.007812 0.226562 17.785156 0.703125 15.109375 0.703125 Z M 16.296875 -3.625 C 18.335938 -3.625 20.101562 -4.09375 21.59375 -5.03125 C 23.09375 -5.96875 24.238281 -7.289062 25.03125 -9 C 25.832031 -10.707031 26.234375 -12.675781 26.234375 -14.90625 L 26.234375 -19.5625 L 25.59375 -19.6875 C 24.78125 -19.113281 23.785156 -18.632812 22.609375 -18.25 C 21.441406 -17.863281 19.804688 -17.515625 17.703125 -17.203125 C 15.578125 -16.910156 13.890625 -16.460938 12.640625 -15.859375 C 11.390625 -15.265625 10.5 -14.507812 9.96875 -13.59375 C 9.4375 -12.675781 9.171875 -11.539062 9.171875 -10.1875 C 9.171875 -8.039062 9.800781 -6.410156 11.0625 -5.296875 C 12.320312 -4.179688 14.066406 -3.625 16.296875 -3.625 Z M 16.296875 -3.625 "/></g></g></g><g clip-path="url(#aa392aafff)"><g clip-path="url(#20dac7e76f)"><path fill="#000000" d="M 168.25 170.65625 L 187.527344 170.65625 L 187.527344 187.5 L 168.25 187.5 Z M 168.25 170.65625 " fill-opacity="1" fill-rule="nonzero"/></g></g><g clip-path="url(#09776aa5c2)"><g clip-path="url(#3c0de7031d)"><path fill="#9d5977" d="M 131.25 131.25 L 243.742188 131.25 L 243.742188 155.550781 L 131.25 155.550781 Z M 131.25 131.25 " fill-opacity="1" fill-rule="nonzero"/></g></g><g clip-path="url(#0bc251c352)"><g clip-path="url(#240c78d50a)"><path fill="#000000" d="M 210.699219 116.300781 L 229.96875 116.300781 L 229.96875 155.519531 L 210.699219 155.519531 Z M 210.699219 116.300781 " fill-opacity="1" fill-rule="nonzero"/></g></g><g clip-path="url(#4ef3c379e0)"><g clip-path="url(#6d0b6f28e9)"><path fill="#ffffff" d="M 215.644531 122.382812 L 225.019531 122.382812 L 225.019531 149.484375 L 215.644531 149.484375 Z M 215.644531 122.382812 " fill-opacity="1" fill-rule="nonzero"/></g></g><g clip-path="url(#3f0741e249)"><g clip-path="url(#d1104c4bb4)"><path fill="#000000" d="M 144.292969 116.300781 L 163.5625 116.300781 L 163.5625 155.519531 L 144.292969 155.519531 Z M 144.292969 116.300781 " fill-opacity="1" fill-rule="nonzero"/></g></g><g clip-path="url(#7cf17536bf)"><g clip-path="url(#7dd5fb28ae)"><path fill="#ffffff" d="M 149.238281 122.382812 L 158.613281 122.382812 L 158.613281 149.484375 L 149.238281 149.484375 Z M 149.238281 122.382812 " fill-opacity="1" fill-rule="nonzero"/></g></g><g clip-path="url(#5fc4204666)"><path fill="#000000" d="M 175.019531 205.5 L 180.730469 205.5 L 180.730469 211.8125 L 175.019531 211.8125 Z M 175.019531 205.5 " fill-opacity="1" fill-rule="nonzero"/></g><g clip-path="url(#52e0b0ade8)"><path fill="#000000" d="M 222.167969 167.5 L 227.875 167.5 L 227.875 173.808594 L 222.167969 173.808594 Z M 222.167969 167.5 " fill-opacity="1" fill-rule="nonzero"/></g></svg>